<?xml version="1.0" encoding="UTF-8"?><svg id="Layer_2" xmlns="http://www.w3.org/2000/svg" xmlns:xlink="http://www.w3.org/1999/xlink" viewBox="0 0 403.44 434.76"><defs><style>.cls-1{fill:url(#linear-gradient);stroke-width:0px;}</style><linearGradient id="linear-gradient" x1="110.17" y1="49.14" x2="344.17" y2="439.14" gradientUnits="userSpaceOnUse"><stop offset="0" stop-color="#1c6699"/><stop offset=".35" stop-color="#0f80a7"/><stop offset=".75" stop-color="#0499b4"/><stop offset="1" stop-color="#00a3b9"/></linearGradient></defs><g id="Layer_1-2"><path class="cls-1" d="M403.44,201.72C403.44,90.32,313.12,0,201.72,0S0,90.32,0,201.72s90.31,201.73,201.72,201.73c21.62,0,42.42-3.44,61.95-9.74l72.22,41.04v-140.26l15.55,42.38c32.31-35.75,52-83.16,52-135.16ZM112.54,148.76c-11.2,0-16.8,5.6-16.8,16.8v12.61c0,12.32-5.6,19.32-16.81,21,11.21,1.67,16.81,8.69,16.81,21v12.61c0,11.2,5.61,16.8,16.8,16.8v25.21c-28.01,0-42.02-14-42.02-42.01v-8.41c0-8.4-5.6-12.6-16.8-12.6v-25.21c11.2,0,16.8-4.2,16.8-12.61v-8.4c0-28.01,14.01-42.02,42.02-42.02v25.21ZM133.61,216.9c-10.15,0-18.37-8.23-18.37-18.37s8.22-18.37,18.37-18.37,18.37,8.23,18.37,18.37-8.23,18.37-18.37,18.37ZM201.52,216.9c-10.15,0-18.37-8.23-18.37-18.37s8.22-18.37,18.37-18.37,18.37,8.23,18.37,18.37-8.22,18.37-18.37,18.37ZM269.44,216.9c-10.14,0-18.37-8.23-18.37-18.37s8.23-18.37,18.37-18.37,18.38,8.23,18.38,18.37-8.23,18.37-18.38,18.37ZM349.72,211.78c-11.21,0-16.81,4.2-16.81,12.6v8.41c0,28.01-14,42.01-42.01,42.01v-25.21c11.2,0,16.81-5.6,16.81-16.8v-12.61c0-12.32,5.6-19.33,16.8-21-11.21-1.69-16.8-8.69-16.8-21v-12.61c0-11.21-5.61-16.8-16.81-16.8v-25.21c28.01,0,42.01,14.01,42.01,42.02v8.4c0,8.41,5.61,12.61,16.81,12.61v25.21Z"/></g></svg>
